<svg xmlns="http://www.w3.org/2000/svg" width="1200" height="760" viewBox="0 0 1200 760"><rect width="1200" height="760" fill="#f7faff"/><style>text{font-family:Arial,sans-serif;fill:#0b1739}.t{font-size:38px;font-weight:700}.s{font-size:18px}.h{font-size:17px;font-weight:700}.k{font-size:27px;font-weight:700}.g{fill:#19a34a}.b{fill:#1976e9}.card{fill:white;stroke:#dbe6f4;stroke-width:2}.sl{fill:#f4f8fc;stroke:#dbe6f4;stroke-width:2}</style><text x="25" y="48" class="t">Executive Overview</text><text x="25" y="78" class="s">Key business metrics and overall performance</text><rect x="15" y="100" width="210" height="635" rx="12" class="sl"/><text x="30" y="130" class="h">Date</text><rect x="30" y="145" width="80" height="38" rx="5" class="card"/><text x="38" y="170">1/1/2024</text><rect x="125" y="145" width="80" height="38" rx="5" class="card"/><text x="132" y="170">12/31/2024</text><g class="h"><text x="30" y="230">Market</text><text x="30" y="315">Category</text><text x="30" y="400">Channel</text><text x="30" y="485">Customer Segment</text><text x="30" y="570">Product</text></g><g><rect x="30" y="245" width="175" height="40" rx="5" class="card"/><rect x="30" y="330" width="175" height="40" rx="5" class="card"/><rect x="30" y="415" width="175" height="40" rx="5" class="card"/><rect x="30" y="500" width="175" height="40" rx="5" class="card"/><rect x="30" y="585" width="175" height="40" rx="5" class="card"/></g><g><text x="42" y="270">All⌄</text><text x="42" y="355">All⌄</text><text x="42" y="440">All⌄</text><text x="42" y="525">All⌄</text><text x="42" y="610">All⌄</text></g><g><rect x="240" y="100" width="220" height="145" rx="12" fill="#eaf5ff"/><rect x="475" y="100" width="220" height="145" rx="12" fill="#eafbf0"/><rect x="710" y="100" width="220" height="145" rx="12" fill="#f3edff"/><rect x="945" y="100" width="235" height="145" rx="12" fill="#fff6e9"/></g><text x="260" y="132" class="h b">Revenue</text><text x="260" y="180" class="k">$1,250,438</text><text x="260" y="215" class="h g">▲ 12.5%</text><text x="495" y="132" class="h g">Gross Profit</text><text x="495" y="180" class="k">$420,318</text><text x="495" y="215" class="h g">▲ 15.2%</text><text x="730" y="132" class="h b">Orders</text><text x="730" y="180" class="k">12,487</text><text x="730" y="215" class="h g">▲ 9.8%</text><text x="965" y="132" class="h" fill="#d76b00">Customers</text><text x="965" y="180" class="k">8,402</text><text x="965" y="215" class="h g">▲ 11.3%</text><rect x="240" y="260" width="610" height="255" rx="12" class="card"/><text x="260" y="292" class="h">Monthly Revenue Trend</text><polyline points="280,450 330,420 380,410 430,365 480,370 530,390 580,340 630,335 680,300 730,275 780,290 825,235" fill="none" stroke="#1976e9" stroke-width="5"/><g fill="#1976e9"><circle cx="280" cy="450" r="6"/><circle cx="430" cy="365" r="6"/><circle cx="580" cy="340" r="6"/><circle cx="730" cy="275" r="6"/><circle cx="825" cy="235" r="6"/></g><rect x="865" y="260" width="315" height="455" rx="12" class="card"/><text x="885" y="292" class="h">Revenue by Market</text><text x="900" y="350" class="s">● North America     38%</text><text x="900" y="395" class="s">● Europe            24%</text><text x="900" y="440" class="s">● Asia              20%</text><text x="900" y="485" class="s">● Middle East       10%</text><text x="900" y="530" class="s">● Others             8%</text><rect x="240" y="530" width="385" height="185" rx="12" class="card"/><text x="260" y="562" class="h">Revenue by Category</text><g stroke-width="18"><line x1="285" y1="600" x2="520" y2="600" stroke="#4285f4"/><line x1="285" y1="635" x2="465" y2="635" stroke="#8b5cf6"/><line x1="285" y1="670" x2="420" y2="670" stroke="#fb7185"/></g><rect x="640" y="530" width="210" height="185" rx="12" class="card"/><text x="660" y="562" class="h">Average Order Value</text><text x="680" y="630" class="k">$100.19</text><text x="680" y="675" class="h g">▲ 4.7%</text></svg>